# This file uses centimeters as units for non-parametric coordinates.

mtllib Bowl_Bush.mtl
g default
v -0.183438 -0.041655 0.092169
v 0.000000 -0.104092 0.000000
v 0.024979 -0.018771 0.242400
v 0.082575 -0.082478 0.125400
v 0.096561 0.032932 -0.066889
v -0.215872 0.147588 0.063722
v -0.122367 0.125093 0.181376
v -0.160201 0.134680 0.133804
v 0.029291 0.165356 -0.097516
v -0.039870 0.095181 -0.101988
v -0.119475 0.126091 0.174682
v 0.188181 0.228573 -0.515223
v -0.371972 0.244526 -0.511010
v 0.276676 1.139131 -0.417361
v -0.086003 0.166402 -0.077432
v -0.099124 0.151141 0.020018
v -0.082244 0.070750 0.256403
v 0.122464 0.158137 -0.078167
v 0.219459 0.103892 0.079989
v -0.119764 0.124211 0.185978
v -0.042940 0.109130 0.256403
v -0.535643 1.114493 -0.137624
v -0.664787 0.387649 0.073793
v -0.334794 0.796739 0.156352
v 0.133256 0.107501 0.256403
v -0.094390 0.125105 0.174177
v 0.208506 0.132390 0.053559
v 0.213064 0.124706 0.098246
v -0.253299 0.944511 0.588728
v -0.318719 0.091958 0.429118
v 0.733245 0.760863 -0.009601
v 0.478973 0.139399 -0.057162
v 0.625690 0.993539 -0.310133
v 0.084726 0.127022 0.248705
v 0.136877 0.136795 0.256403
v 0.436159 0.200281 0.344400
v 0.225327 0.214062 0.965507
v -0.034378 0.108868 0.255782
v 0.286842 0.722735 0.326443
v 0.296109 1.027106 -0.224640
v 0.296573 1.131446 -0.230270
v 0.310407 1.045151 -0.263395
v 0.335520 1.016886 -0.223710
v 0.306460 1.128869 -0.229428
v 0.307374 1.166748 -0.250470
v -0.283332 0.899223 0.510203
v -0.318056 1.026907 0.492145
v -0.267533 0.918700 0.513206
v 0.296558 1.131486 -0.230227
v 0.296642 1.150955 -0.231270
v 0.296666 1.156579 -0.231571
v -0.259798 0.935316 0.577071
v 0.310613 1.200633 -0.226718
v -0.238614 0.913975 0.517778
v -0.276837 1.045679 0.502932
v 0.272425 1.178049 -0.205547
v 0.280587 1.166558 -0.203428
v 0.300206 1.149819 -0.230726
v 0.284572 1.174983 -0.202474
v -0.317190 1.041188 0.534678
v -0.256450 0.938798 0.572012
v -0.195244 1.260375 0.224631
v 0.219441 1.251971 -0.159857
v 0.208123 0.123291 0.107951
v 0.625828 0.266995 0.670102
v 0.275944 1.450679 -0.199401
v -0.167218 0.053694 -0.069618
v -0.195380 0.164381 -0.044631
vt 0.742576 0.812233
vt 0.779135 0.717460
vt 0.779135 0.907007
vt 0.815694 0.812233
vt 0.815694 0.717460
vt 0.691824 0.222408
vt 0.706017 0.148820
vt 0.742174 0.336279
vt 0.721810 0.290507
vt 0.792515 0.527914
vt 0.779135 0.527914
vt 0.743565 0.343491
vt 0.310620 0.749329
vt 0.221829 0.749329
vt 0.310620 0.541870
vt 0.771709 0.527914
vt 0.760810 0.456704
vt 0.742576 0.907007
vt 0.815694 0.624026
vt 0.852253 0.338367
vt 0.852253 0.148820
vt 0.888812 0.148820
vt 0.742576 0.148820
vt 0.742576 0.329127
vt 0.754555 0.179873
vt 0.221829 0.541870
vt 0.133038 0.334412
vt 0.133038 0.230682
vt 0.177433 0.334412
vt 0.815694 0.907007
vt 0.748427 0.345950
vt 0.815694 0.433140
vt 0.815694 0.447896
vt 0.815694 0.148820
vt 0.815694 0.423332
vt 0.221829 0.334412
vt 0.177433 0.126953
vt 0.857945 0.338367
vt 0.888812 0.242255
vt 0.399411 0.126953
vt 0.310620 0.334412
vt 0.355015 0.126953
vt 0.221829 0.438141
vt 0.355015 0.334412
vt 0.399411 0.334412
vt 0.795597 0.234167
vt 0.779135 0.148820
vt 0.815694 0.176931
vt 0.221829 0.853058
vt 0.310620 0.956788
vt 0.221829 0.956788
vt 0.249595 0.820620
vt 0.250208 0.832153
vt 0.250183 0.833163
vt 0.252760 0.852308
vt 0.253479 0.853058
vt 0.757336 0.182877
vt 0.221829 0.126953
vt 0.266224 0.334412
vt 0.310620 0.126953
vt 0.888812 0.148820
vt 0.888790 0.148878
vt 0.815694 0.338367
vt 0.742576 0.148820
vt 0.844487 0.148820
vt 0.815694 0.338367
vt 0.742576 0.148820
vt 0.742576 0.148820
vt 0.808552 0.148820
vt 0.888812 0.148820
vt 0.888812 0.148820
vt 0.888812 0.148820
vt 0.815694 0.338367
vt 0.742576 0.148820
vt 0.888812 0.148820
vt 0.888812 0.148820
vt 0.888430 0.148820
vt 0.888812 0.148820
vt 0.742576 0.148820
vt 0.742576 0.148820
vt 0.869549 0.148820
vt 0.836102 0.285463
vt 0.815694 0.338367
vt 0.815694 0.338367
vt 0.815694 0.338367
vt 0.824643 0.315169
vt 0.669459 0.338367
vt 0.815694 0.527914
vt 0.815694 0.717460
vt 0.742576 0.907007
vt 0.815694 0.527914
vt 0.815694 0.717460
vt 0.742576 0.907007
vt 0.669459 0.338367
vt 0.888812 0.338367
vt 0.888812 0.338367
vt 0.848470 0.338367
vt 0.846458 0.326390
vt 0.310620 0.230682
vt 0.888812 0.338367
vt 0.815694 0.527914
vt 0.815694 0.717460
vt 0.742576 0.907007
vt 0.669459 0.338367
vt 0.310620 0.438141
vt 0.267568 0.871163
vt 0.273874 0.882073
vt 0.280471 0.853058
vt 0.310620 0.853058
vt 0.260294 0.808122
vt 0.281362 0.851966
vt 0.252820 0.833762
vt 0.283273 0.844216
vt 0.283079 0.814146
vt 0.276588 0.801713
vt 0.250781 0.831348
vt 0.300096 0.475921
vt 0.299426 0.484549
vt 0.302012 0.492209
vt 0.221829 0.352530
vt 0.223942 0.348438
vt 0.221829 0.338422
vt 0.220112 0.334412
vt 0.220140 0.332992
vt 0.212026 0.329387
vt 0.214074 0.334412
vt 0.742576 0.717460
vt 0.221829 0.645600
vt 0.742576 0.663953
vt 0.669459 0.202328
vt 0.669459 0.148820
vt 0.133038 0.126953
vt 0.263248 0.797385
vt 0.245623 0.800912
vt 0.241404 0.812845
vn -0.368556 -0.926446 0.076576
vn 0.004184 -0.998353 -0.057210
vn 0.008503 -0.818642 0.574242
vn 0.248019 -0.937866 0.242682
vn 0.683387 -0.646830 -0.338517
vn -0.786075 -0.042024 0.616701
vn -0.812497 -0.014207 0.582792
vn -0.833155 0.009317 0.552962
vn -0.786075 -0.042024 0.616701
vn -0.676844 0.684347 -0.271203
vn -0.676844 0.684347 -0.271203
vn -0.676844 0.684347 -0.271203
vn -0.004422 0.107283 -0.994219
vn -0.426895 0.191331 -0.883829
vn -0.240405 0.271855 -0.931826
vn 0.852595 0.486427 0.190971
vn 0.852595 0.486427 0.190971
vn 0.852595 0.486427 0.190971
vn 0.852595 0.486427 0.190971
vn -0.419358 -0.607768 0.674357
vn 0.192196 -0.127416 -0.973050
vn 0.102968 -0.307668 -0.945906
vn -0.040892 -0.247312 -0.968073
vn 0.192196 -0.127416 -0.973050
vn 0.866536 -0.491434 -0.087227
vn 0.809089 -0.586913 0.030129
vn 0.776441 -0.465515 -0.424776
vn -0.865217 0.049982 0.498900
vn -0.865217 0.049982 0.498900
vn -0.515346 0.527762 0.675193
vn -0.515347 0.527762 0.675193
vn -0.515346 0.527762 0.675193
vn -0.505228 0.258351 -0.823407
vn -0.584085 0.320670 0.745664
vn -0.844651 -0.383234 0.373760
vn -0.757948 0.536524 0.371020
vn 0.578866 -0.561901 0.590916
vn 0.246408 0.708261 0.661551
vn 0.246408 0.708261 0.661551
vn 0.246408 0.708261 0.661551
vn 0.818676 -0.403812 0.408297
vn -0.188453 0.614234 -0.766291
vn -0.188453 0.614234 -0.766291
vn -0.188453 0.614234 -0.766291
vn -0.763144 0.009695 0.646156
vn -0.758750 -0.224927 0.611315
vn 0.797660 -0.215757 -0.563194
vn 0.797660 -0.215757 -0.563194
vn 0.705187 -0.210317 -0.677110
vn 0.835143 -0.366451 -0.410183
vn 0.890024 -0.340993 -0.302623
vn 0.202293 0.730904 0.651810
vn 0.115851 0.916168 0.383686
vn 0.099484 0.840797 0.532131
vn 0.596782 -0.128989 -0.791968
vn 0.319704 0.070481 -0.944893
vn -0.028511 -0.031524 0.999096
vn 0.050194 -0.063675 0.996708
vn -0.149388 0.018466 0.988606
vn -0.149388 0.018466 0.988606
vn 0.086354 -0.996262 0.002155
vn 0.153983 -0.981041 0.117673
vn 0.149654 -0.986064 0.072678
vn -0.030063 -0.986837 -0.158900
vn -0.042060 -0.985375 -0.165128
vn -0.042060 -0.985375 -0.165128
vn -0.042060 -0.985375 -0.165128
vn 0.151688 -0.976426 0.153569
vn 0.070048 -0.071736 0.994961
vn 0.070048 -0.071736 0.994961
vn 0.070048 -0.071736 0.994961
vn -0.690391 -0.081597 0.718820
vn 0.076551 0.931778 0.354866
vn 0.841066 -0.525845 -0.126867
vn -0.917498 0.000449 -0.397740
vn -0.917498 0.000449 -0.397740
vn -0.917498 0.000449 -0.397740
vn -0.917498 0.000449 -0.397740
vn -0.917498 0.000449 -0.397741
vn -0.917498 0.000449 -0.397740
vn -0.917498 0.000449 -0.397741
vn -0.122565 0.021359 0.992231
vn -0.122565 0.021359 0.992231
vn -0.122565 0.021359 0.992231
vn -0.122565 0.021359 0.992231
vn -0.122565 0.021359 0.992231
vn -0.122565 0.021359 0.992231
vn -0.122565 0.021359 0.992231
vn -0.122565 0.021359 0.992231
vn 0.905519 0.096280 -0.413238
vn 0.905519 0.096280 -0.413238
vn 0.905519 0.096280 -0.413238
vn 0.905519 0.096280 -0.413238
vn -0.904909 -0.272221 0.327164
vn -0.904909 -0.272221 0.327164
vn -0.904909 -0.272221 0.327164
vn -0.904909 -0.272221 0.327164
vn 0.234042 -0.062752 -0.970199
vn 0.234042 -0.062752 -0.970199
vn 0.234042 -0.062752 -0.970199
vn 0.234042 -0.062752 -0.970199
vn 0.234042 -0.062752 -0.970199
vn -0.583413 -0.643906 0.494989
vn -0.583413 -0.643906 0.494989
vn -0.583413 -0.643906 0.494989
vn -0.583413 -0.643906 0.494989
vn -0.583413 -0.643906 0.494989
vn 0.830003 0.070557 0.553278
vn 0.830003 0.070557 0.553278
vn 0.830003 0.070557 0.553278
vn 0.830003 0.070557 0.553278
vn -0.326063 0.481116 -0.813763
vn -0.326063 0.481116 -0.813763
vn -0.326063 0.481116 -0.813763
vn -0.326063 0.481116 -0.813763
vn -0.326063 0.481116 -0.813763
vn -0.924447 0.366765 -0.104315
vn -0.924447 0.366766 -0.104315
vn -0.924447 0.366766 -0.104315
vn 0.464978 -0.761676 -0.451271
vn 0.464978 -0.761676 -0.451271
vn 0.464978 -0.761676 -0.451271
vn 0.777439 0.439246 0.450168
vn 0.777439 0.439246 0.450168
vn 0.777439 0.439246 0.450168
vn 0.777439 0.439246 0.450168
vn 0.777439 0.439246 0.450168
vn -0.814688 -0.579863 -0.006571
vn -0.814688 -0.579863 -0.006571
vn -0.814688 -0.579863 -0.006571
vn 0.306665 -0.249098 0.918644
vn 0.306665 -0.249098 0.918644
vn 0.306665 -0.249098 0.918644
vn 0.336513 0.657736 -0.673901
vn 0.336513 0.657736 -0.673901
vn 0.336513 0.657736 -0.673901
vn 0.421371 0.654115 0.628156
vn 0.421371 0.654115 0.628156
vn 0.421371 0.654115 0.628156
vn 0.892102 -0.110272 0.438171
vn 0.892102 -0.110272 0.438171
vn 0.892102 -0.110272 0.438171
vn 0.513138 0.388552 0.765322
vn 0.527690 0.557283 0.641076
vn 0.193620 -0.977175 0.087405
vn -0.868424 -0.006960 -0.495773
vn -0.868424 -0.006960 -0.495773
vn -0.868424 -0.006960 -0.495773
vn 0.532334 0.636623 0.557971
vn 0.457697 0.673653 0.580262
vn 0.743740 -0.591184 -0.312014
vn -0.002001 -0.108874 0.994054
vn -0.002001 -0.108874 0.994054
vn -0.002001 -0.108874 0.994054
vn 0.916767 0.166761 -0.362945
vn 0.916767 0.166761 -0.362945
vn 0.916767 0.166761 -0.362945
vn 0.241215 0.840129 0.485796
vn 0.314179 0.801805 0.508331
vn 0.372082 0.713376 0.593844
vn 0.158170 -0.973617 0.164475
vn 0.158170 -0.973617 0.164475
vn 0.119031 -0.987955 0.098872
vn 0.026332 -0.998184 -0.054188
vn -0.039984 -0.985641 -0.164053
vn -0.034276 -0.986344 -0.161090
vn -0.042060 -0.985375 -0.165128
vn -0.042060 -0.985375 -0.165128
vn -0.042060 -0.985375 -0.165128
vn -0.042060 -0.985375 -0.165128
vn -0.042060 -0.985375 -0.165128
vn -0.042060 -0.985375 -0.165128
vn 0.210317 0.854279 0.475368
vn 0.210317 0.854279 0.475368
vn 0.210317 0.854279 0.475368
vn 0.204790 0.913750 -0.350889
vn 0.204790 0.913750 -0.350889
vn 0.204790 0.913750 -0.350889
vn 0.204790 0.913750 -0.350889
vn -0.769160 0.634983 -0.072044
vn -0.769160 0.634983 -0.072044
vn -0.769160 0.634983 -0.072044
vn -0.769160 0.634983 -0.072044
vn -0.021781 -0.458937 -0.888202
vn -0.192514 -0.163948 -0.967502
vn -0.891230 0.026655 -0.452769
vn -0.286776 0.140942 -0.947573
vn -0.286776 0.140942 -0.947573
vn -0.488795 -0.729266 -0.478802
vn -0.957554 -0.195898 -0.211458
vn -0.957554 -0.195898 -0.211458
vn -0.957554 -0.195898 -0.211458
vn -0.957554 -0.195898 -0.211458
vn -0.586966 -0.803757 -0.097189
vn -0.029299 -0.986924 -0.158503
vn -0.029299 -0.986924 -0.158503
vn -0.029299 -0.986924 -0.158503
vn -0.029299 -0.986924 -0.158503
s 1
g pCube9
usemtl initialShadingGroup
f 1/1/1 2/2/2 3/3/3
f 4/4/4 2/2/2 5/5/5
s 2
f 6/6/6 1/7/7 7/8/8 8/9/9
s off
f 9/10/10 10/11/11 11/12/12
s 3
f 12/13/13 13/14/14 14/15/15
s 1
f 3/3/3 2/2/2 4/4/4
s off
f 11/12/16 10/11/17 15/16/18 16/17/19
s 1
f 17/18/20 1/1/1 3/3/3
s 4
f 18/19/21 5/5/22 10/11/23 9/10/24
s 5
f 19/20/25 4/21/26 5/22/27
s 2
f 7/8/8 1/7/7 17/23/28 20/24/29
s off
f 20/24/30 17/23/31 21/25/32
s 3
f 22/26/33 14/15/15 13/14/14
s 6
f 22/27/34 23/28/35 24/29/36
s 1
f 25/30/37 3/3/3 4/4/4
s off
f 26/31/38 19/32/39 27/33/40
s 5
f 25/34/41 4/21/26 19/20/25
s off
f 28/35/42 19/32/43 26/31/44
s 6
f 29/36/45 23/28/35 30/37/46
s 5
f 27/38/47 19/20/25 5/22/27 18/39/48
s 7
f 12/40/49 31/41/50 32/42/51
s 8
f 22/26/52 24/43/53 14/15/54
s 7
f 33/44/55 12/40/49 14/45/56
s 9
f 34/46/57 3/47/58 25/34/59 35/48/60
s 10
f 30/49/61 36/50/62 37/51/63
f 30/49/61 8/52/64 7/53/65 20/54/66 21/55/67 38/56/68
s 9
f 17/23/69 3/47/58 34/46/57 38/57/70 21/25/71
s 7
f 33/44/55 31/41/50 12/40/49
s 6
f 37/58/72 29/36/45 30/37/46
s 8
f 24/43/53 39/59/73 14/15/54
s 7
f 36/60/74 32/42/51 31/41/50
s off
f 42/63/75 40/61/76 49/70/77 41/62/78 50/71/79 51/72/80 45/66/81
f 58/81/82 44/65/83 49/70/84 40/61/85 43/64/86 53/74/87 51/72/88 50/71/89
f 43/64/90 42/63/91 45/66/92 53/74/93
f 47/68/94 46/67/95 52/73/96 60/85/97
f 55/76/98 54/75/99 48/69/100 46/67/101 47/68/102
f 49/77/103 44/79/104 57/80/105 56/78/106 41/62/107
f 57/80/108 44/79/109 58/83/110 59/84/111
f 59/84/112 58/83/113 50/82/114 41/62/115 56/78/116
f 62/87/117 47/68/118 60/85/119
f 62/88/120 55/89/121 47/90/122
f 60/85/123 52/73/124 61/86/125 54/75/126 55/76/127
f 63/91/128 56/92/129 57/93/130
f 63/94/131 57/80/132 59/84/133
f 59/84/134 56/78/135 63/95/136
f 60/85/137 55/76/138 62/96/139
s 5
f 25/34/41 19/20/25 28/97/140 64/98/141 35/48/142
s 12
f 65/99/143 37/58/144 36/60/145
s off
f 45/66/146 51/72/147 66/100/148
s 12
f 29/36/149 37/58/144 39/59/150
s 7
f 65/99/151 36/60/74 31/41/50
s off
f 66/101/152 51/102/153 53/103/154
f 66/104/155 53/74/156 45/66/157
s 8
f 33/105/158 39/59/73 31/41/159
s 12
f 39/59/150 37/58/144 31/41/160
f 31/41/160 37/58/144 65/99/143
s 10
f 36/50/62 30/49/61 38/56/68 34/106/161 35/107/162 64/108/163 32/109/164
f 16/110/165 12/13/166 32/109/164 64/108/163 28/111/167 26/112/168 27/113/169 18/114/170 9/115/171 11/116/172
s 8
f 43/117/173 40/118/174 42/119/175 14/15/54 39/59/73
f 14/15/54 42/119/175 43/117/173 39/59/73 33/105/158
f 29/36/176 39/59/73 24/43/53 48/120/177 54/121/178 61/122/179
s 6
f 24/29/36 23/28/35 29/36/45 61/123/180 52/124/181 46/125/182 48/126/183
s 4
f 2/2/184 10/11/23 5/5/22
f 67/127/185 10/11/23 2/2/184
s 3
f 22/26/33 13/14/14 23/128/186
s 4
f 15/16/187 10/11/23 67/127/185 68/129/188
s 1
f 67/127/189 2/2/2 1/1/1
s off
f 68/130/190 67/131/191 1/7/192 6/6/193
s 6
f 13/132/194 30/37/46 23/28/35
s 10
f 13/14/195 12/13/166 16/110/165 15/133/196 68/134/197 6/135/198 8/52/64 30/49/61
