# This file uses centimeters as units for non-parametric coordinates.

mtllib deadTree_v2.mtl
g default
v 1.127606 -2.376630 1.127606
v -1.240729 -2.571041 1.296086
v -0.810728 2.843461 0.465823
v -0.810325 5.616717 -0.494656
v 0.624772 3.261908 0.664114
v 0.666719 5.375255 0.205624
v -2.854469 9.521955 -1.262731
v -0.469753 5.325757 0.930185
v -0.977623 8.392900 0.394185
v -0.212564 11.506314 -0.936295
v 0.977623 8.888878 -0.394185
v -6.853621 15.769822 -0.301028
v -5.252470 15.182220 0.113583
v -4.814060 14.604095 0.232209
v 0.656847 11.488421 -0.464594
v 0.074874 14.452000 -5.061009
v 0.379530 14.647017 -4.967031
v 0.089739 14.849867 -4.999336
v -0.483039 12.165521 -0.340593
v 0.390630 10.341219 0.772613
v -0.479974 12.599271 0.498474
v -5.968531 16.066528 1.921139
v -0.439988 12.451980 -0.378960
v -3.628589 14.596442 -0.107143
v 0.389172 12.535719 -0.586394
v 0.624179 11.014914 0.136880
v -0.027011 11.757313 0.770302
v 0.577882 13.016109 0.145984
v 0.469118 5.477492 -0.658056
v 0.219697 13.641532 -0.570309
v 0.194059 14.007154 0.627050
v 0.973354 14.309795 4.874189
v 0.650420 14.593369 -0.180046
v -0.944894 20.436024 -0.534363
v 6.194534 16.577648 0.116951
v 6.127554 16.507025 0.394914
v 6.034944 16.993780 0.582552
v 0.488035 7.045251 0.300908
v 1.127606 -2.376630 -1.127606
v -1.127606 -2.376630 -1.127606
v 3.257357 11.741173 -0.304405
vt 0.625000 0.000000
vt 0.375000 0.000000
vt 0.375000 0.043348
vt 0.125000 0.085455
vt 0.375000 0.664545
vt 0.612179 0.065734
vt 0.688813 0.091956
vt 0.437694 0.085035
vt 0.838799 0.091184
vt 0.875000 0.250000
vt 0.375000 0.016922
vt 0.375000 0.125023
vt 0.625000 0.140022
vt 0.874984 0.145965
vt 0.125000 0.159253
vt 0.375000 0.590747
vt 0.625000 0.624977
vt 0.875000 0.250000
vt 0.625000 0.186050
vt 0.875000 0.250000
vt 0.415156 0.170122
vt 0.392217 0.746469
vt 0.375000 0.250000
vt 0.625000 0.500000
vt 0.625000 0.500000
vt 0.624995 0.729346
vt 0.415156 0.170122
vt 0.625000 0.250000
vt 0.249120 0.169133
vt 0.124658 0.022056
vt 0.369399 0.036616
vt 0.619317 0.032945
vt 0.875000 0.125023
vt 0.656532 0.143891
vt 0.375000 0.013355
vt 0.875000 0.250000
vt 0.566348 0.595004
vt 0.375000 0.250000
vt 0.375000 0.006141
vt 0.125000 0.034004
vt 0.875000 0.033447
vt 0.125000 0.011563
vt 0.625000 0.013667
vt 0.375000 0.738437
vt 0.625000 0.088497
vt 0.875000 0.048653
vt 0.777687 0.148616
vt 0.661292 0.110555
vt 0.874887 0.020634
vt 0.125000 0.172529
vt 0.241815 0.172588
vt 0.563340 0.160703
vt 0.625000 0.573573
vt 0.507843 0.581954
vt 0.464388 0.172401
vt 0.788480 0.169950
vt 0.625000 0.664545
vt 0.138790 0.200347
vt 0.125000 0.017260
vt 0.675026 0.183637
vt 0.375000 0.016639
vt 0.625000 0.014454
vt 0.481364 0.554430
vt 0.875000 0.250000
vt 0.875000 0.028884
vt 0.875000 0.190751
vt 0.595017 0.558247
vt 0.806447 0.068380
vt 0.423464 -0.013234
vt 0.375000 0.250000
vt 0.361556 0.010929
vt 0.375000 0.250000
vt 0.125000 0.003270
vt 0.125000 0.250000
vt 0.375000 0.746730
vt 0.375000 0.500000
vt 0.625000 0.740747
vt 0.375000 0.250000
vt 0.875000 0.009253
vt 0.625000 0.025074
vt 0.375000 0.639877
vt 0.625000 0.718371
vt 0.625000 0.023254
vt 0.619768 0.507699
vt 0.375275 0.085744
vt 0.625000 0.250000
vt 0.855717 0.026201
vt 0.375000 0.732740
vt 0.125000 0.101560
vt 0.125000 0.110123
vt 0.375000 0.069780
vt 0.707508 0.109530
vt 0.875000 0.000000
vt 0.375000 0.750000
vt 0.625000 0.750000
vt 0.625000 1.000000
vt 0.375000 1.000000
vt 0.125000 0.000000
vt 0.625000 0.740931
vt 0.625000 0.701347
vt 0.125000 0.011460
vt 0.625000 0.250000
vn -0.117352 0.083020 -0.989614
vn -0.088605 0.077382 -0.993057
vn -0.007583 0.061212 -0.998096
vn 0.962342 -0.134708 -0.236119
vn 0.976207 -0.110487 -0.186583
vn 0.996300 0.085946 0.000746
vn -0.163016 0.093815 0.982153
vn -0.084136 0.051794 0.995107
vn -0.085471 -0.171851 0.981408
vn -0.054742 -0.041666 0.997631
vn 0.451471 0.191555 0.871482
vn -0.013381 -0.077919 0.996870
vn 0.207484 0.142273 -0.967837
vn 0.567613 -0.633085 -0.526326
vn 0.568516 -0.637623 -0.519834
vn -0.169113 -0.064418 -0.983489
vn -0.240112 -0.670069 -0.702392
vn -0.181032 -0.134454 -0.974243
vn 0.718998 0.522291 -0.458534
vn 0.718998 0.522291 -0.458534
vn 0.718998 0.522291 -0.458534
vn -0.902369 -0.108984 -0.416957
vn -0.874188 0.001366 0.485585
vn -0.993428 0.006481 -0.114277
vn 0.743423 -0.018592 0.668563
vn 0.856470 0.005231 0.516170
vn 0.824411 -0.004321 0.565976
vn 0.280317 0.901418 -0.329951
vn 0.280317 0.901418 -0.329951
vn 0.280317 0.901418 -0.329951
vn 0.377310 -0.561939 -0.736112
vn 0.858173 -0.146953 -0.491878
vn 0.441623 0.009944 -0.897146
vn -0.767364 0.111243 0.631489
vn -0.532760 -0.009952 0.846208
vn -0.911162 0.113595 0.396080
vn 0.164236 -0.327445 0.930487
vn 0.172183 -0.337782 0.925341
vn 0.193607 -0.365539 0.910438
vn -0.210641 0.691899 -0.690584
vn -0.201695 0.670415 -0.714047
vn -0.104616 0.426753 -0.898297
vn 0.541626 0.097253 -0.834975
vn 0.541626 0.097253 -0.834975
vn 0.541626 0.097253 -0.834975
vn -0.552014 0.418503 0.721204
vn -0.552014 0.418503 0.721204
vn -0.552014 0.418503 0.721204
vn 0.040467 -0.998358 -0.040538
vn 0.039904 -0.998358 -0.041089
vn 0.081813 -0.996648 0.000000
vn 0.038383 0.095494 0.994690
vn 0.063549 0.087387 0.994146
vn 0.987123 0.038711 0.155207
vn 0.996047 0.088826 0.000000
vn 0.000000 0.059677 -0.998218
vn -0.983344 0.059609 0.171701
vn -0.997278 0.068705 -0.026755
vn -0.996001 0.043246 0.078178
vn -0.964872 0.086105 0.248211
vn -0.888994 -0.441262 0.122383
vn -0.888994 -0.441262 0.122383
vn -0.888994 -0.441262 0.122383
vn 0.524418 0.170571 0.834201
vn 0.524418 0.170571 0.834201
vn 0.524418 0.170571 0.834201
vn 0.516088 0.229659 0.825172
vn -0.741060 -0.106803 -0.662890
vn -0.229790 -0.117808 -0.966084
vn -0.225209 -0.153435 -0.962153
vn -0.227343 -0.137149 -0.964109
vn 0.203639 0.161380 0.965654
vn 0.242255 0.610566 0.754004
vn 0.243338 0.618086 0.747500
vn 0.263424 0.775119 0.574280
vn 0.305138 0.893231 0.330195
vn 0.341079 0.939917 0.014898
vn -0.474239 -0.138446 0.869442
vn -0.150551 -0.266066 -0.952126
vn -0.150551 -0.266066 -0.952126
vn -0.150551 -0.266066 -0.952126
vn -0.422830 -0.896655 0.131247
vn -0.422830 -0.896654 0.131247
vn -0.422830 -0.896654 0.131246
vn 0.571653 -0.654725 -0.494518
vn -0.241408 -0.719990 -0.650643
vn 0.279446 -0.790467 -0.545043
vn -0.994372 0.051501 -0.092582
vn 0.944809 -0.018888 0.327078
vn 0.867200 -0.009169 0.497876
vn 0.714581 0.003569 0.699544
vn -0.794873 -0.606504 -0.018168
vn -0.794873 -0.606505 -0.018168
vn -0.794872 -0.606505 -0.018168
vn 0.958006 0.259132 0.122783
vn 0.969027 0.246159 0.019813
vn 0.200666 -0.668563 0.716070
vn 0.200666 -0.668563 0.716070
vn 0.200666 -0.668563 0.716070
vn -0.653471 0.024011 0.756571
vn -0.653471 0.024011 0.756571
vn -0.653471 0.024011 0.756571
vn 0.346767 0.798102 0.492733
vn 0.464863 0.741223 0.484243
vn -0.234198 0.874247 0.425258
vn -0.251422 0.871679 0.420669
vn -0.246583 0.011849 0.969049
vn -0.246582 0.011849 0.969049
vn -0.246583 0.011849 0.969049
vn 0.225600 0.590609 0.774782
vn 0.225600 0.590608 0.774781
vn 0.225600 0.590608 0.774781
vn -0.240468 -0.022739 -0.970391
vn -0.767792 -0.128280 -0.627726
vn -0.767792 -0.128280 -0.627726
vn -0.767792 -0.128280 -0.627726
vn 0.930115 0.147441 -0.336373
vn 0.938684 0.153916 -0.308515
vn 0.426199 0.006442 -0.904607
vn -0.979029 0.089314 0.183098
vn -0.897985 0.436846 -0.052810
vn -0.887813 -0.261219 0.378884
vn -0.381000 0.098449 0.919319
vn -0.381169 0.098537 0.919239
vn 0.965221 -0.242553 0.097556
vn 0.965221 -0.242554 0.097556
vn 0.965221 -0.242554 0.097556
vn 0.330157 0.763342 -0.555253
vn 0.748747 -0.031414 0.662111
vn 0.455521 -0.849505 -0.266163
vn 0.398418 -0.582886 -0.708172
vn 0.399630 -0.586670 -0.704354
vn 0.448814 -0.885940 -0.116948
vn 0.194303 -0.366438 0.909928
vn -0.100485 0.416032 -0.903781
vn 0.757733 0.243609 0.605389
vn 0.757733 0.243609 0.605389
vn 0.757733 0.243609 0.605389
vn -0.421736 0.830212 0.364537
vn -0.421736 0.830212 0.364537
vn -0.421736 0.830212 0.364537
vn -0.070109 0.087314 -0.993711
vn -0.070109 0.087314 -0.993711
vn -0.070109 0.087314 -0.993711
vn 0.257778 -0.027525 0.965812
vn 0.257778 -0.027525 0.965812
vn 0.257778 -0.027525 0.965812
vn 0.000000 0.316228 -0.948683
vn 0.970475 0.124604 -0.206522
vn 0.000000 0.000000 -1.000000
vn -0.970475 -0.124604 0.206522
vn -0.723482 -0.113233 -0.680994
vn 0.889977 -0.382118 -0.248850
vn 0.963457 0.085444 0.253870
vn 0.963457 0.085444 0.253870
vn 0.963457 0.085444 0.253870
vn -0.996510 0.072904 -0.040663
vn 0.000000 -0.996798 -0.079956
s 1
g pCube18
usemtl initialShadingGroup
f 4/5/1 29/57/2 40/94/3
s 2
f 29/9/4 6/7/5 39/93/6
s 3
f 3/3/7 5/6/8 8/8/9
s 4
f 9/12/10 6/7/11 38/92/12
s 5
f 18/28/13 17/24/14 16/23/15
s 6
f 23/44/16 14/27/17 30/26/18
s off
f 9/45/19 29/68/20 7/10/21
s 7
f 10/31/22 19/32/23 16/23/24
s 8
f 28/56/25 26/47/26 11/33/27
s off
f 13/41/28 22/38/29 24/43/30
s 9
f 10/16/31 15/37/32 11/17/33
s 4
f 27/52/34 21/55/35 23/51/36
s 11
f 36/76/37 37/84/38 28/75/39
s 12
f 37/84/40 35/72/41 33/80/42
s off
f 34/78/43 33/67/44 30/63/45
f 11/90/46 38/91/47 41/102/48
s 13
f 2/97/49 39/95/50 1/96/51
s 3
f 2/2/52 1/1/53 5/6/8
f 2/2/52 5/6/8 3/3/7
s 2
f 39/93/6 5/6/54 1/1/55
s 1
f 29/57/2 39/95/56 40/94/3
s 14
f 4/4/57 40/98/58 3/3/59
f 4/4/57 3/3/59 8/8/60
s 2
f 6/7/5 5/6/54 39/93/6
s off
f 8/69/61 7/10/62 4/59/63
f 8/14/64 5/11/65 6/13/66
s 4
f 8/8/67 6/7/11 9/12/10
s 7
f 19/29/23 10/15/22 9/12/68
s 15
f 25/50/69 9/12/70 23/51/71
s 7
f 19/29/23 9/12/68 25/50/72
s 16
f 21/35/73 30/49/74 24/48/75
f 24/48/75 30/49/74 12/18/76
f 24/48/75 12/25/76 13/19/77
s 4
f 23/51/36 9/12/10 27/52/34
f 27/52/34 9/12/10 38/92/12
f 27/52/34 38/92/12 20/34/78
s off
f 7/20/79 29/99/80 4/88/81
f 21/35/82 14/21/83 23/42/84
s 5
f 17/24/14 15/22/85 16/23/15
s 6
f 14/27/17 12/25/86 30/26/18
s 9
f 16/23/87 15/30/32 10/31/31
s 7
f 19/32/23 18/28/88 16/23/24
s 8
f 26/47/26 20/34/89 38/92/90
f 26/47/26 38/92/90 11/33/27
f 27/52/91 26/47/26 28/56/25
s off
f 13/40/92 14/39/93 22/38/94
s 9
f 15/22/32 17/24/95 25/100/96
s off
f 22/38/97 14/39/98 24/43/99
f 9/45/100 7/10/101 8/69/102
s 18
f 17/36/103 18/28/104 19/32/105
f 17/36/103 19/32/105 25/46/106
s off
f 14/21/107 13/19/108 12/25/109
f 24/48/110 14/21/111 21/35/112
s 15
f 30/58/113 25/50/69 23/51/71
s off
f 34/70/114 30/58/115 21/55/116
s 9
f 30/63/117 28/53/118 25/54/96
f 29/57/119 10/16/31 11/17/33
f 15/37/32 25/54/96 28/53/118
f 15/37/32 28/53/118 11/17/33
s 19
f 32/64/120 27/101/121 20/61/122
s 4
f 31/60/123 21/55/35 27/52/34
f 34/70/124 21/55/35 31/60/123
s off
f 32/64/125 20/61/126 26/62/127
s 19
f 27/65/121 32/64/120 26/62/128
s 8
f 28/56/25 31/60/129 27/52/91
s 20
f 36/74/130 28/73/131 30/71/132
f 36/74/130 30/71/132 35/72/133
s 11
f 31/77/134 28/75/39 37/84/38
s 12
f 35/72/41 30/71/135 33/80/42
s off
f 31/60/136 33/66/137 34/78/138
f 37/84/139 33/80/140 31/79/141
f 11/81/142 41/102/143 29/82/144
f 6/83/145 41/102/146 38/91/147
s 21
f 9/12/148 8/85/149 4/4/150
f 9/12/148 4/4/150 8/8/151
s 7
f 29/89/152 9/12/68 10/15/22
s 2
f 29/87/4 41/86/153 6/83/5
s off
f 35/72/154 37/84/155 36/76/156
s 14
f 2/2/157 3/3/59 40/98/58
s 13
f 40/94/158 39/95/50 2/97/49
