# This file uses centimeters as units for non-parametric coordinates.

mtllib pointyTree_v2.mtl
g default
v -1.235488 5.135561 -2.258865
v -0.261097 3.077065 -1.325716
v -2.167954 3.617421 -0.174638
v 0.337910 3.570623 0.327404
v 0.495092 -2.773338 0.477914
v 0.332861 3.447376 -0.048243
v -0.334195 3.505060 -0.044517
v -0.453374 -2.513205 0.517178
v -0.309574 3.623435 0.356778
v -0.319080 3.583947 0.198982
v 2.501155 4.395916 -1.689994
v -0.067758 3.603780 0.345600
v 0.320293 3.572372 0.328186
v -1.006161 11.494746 -1.141990
v 2.250474 3.537426 0.718237
v -1.748556 4.080704 1.760781
v -1.771876 10.122583 1.545379
v 1.477120 9.689031 -1.827834
v 0.131787 4.736582 2.720347
v 3.191393 7.332885 -0.340356
v 1.510807 5.454559 2.527503
v 0.415374 11.725234 1.897478
v 2.909848 6.507649 1.679935
v -1.080327 12.522475 0.740863
v 0.000000 16.191826 0.000000
v 1.896981 10.829128 1.663270
v 0.328078 3.365743 -0.297426
v 0.047239 3.389143 -0.298548
v -0.351209 3.423770 -0.295800
v -0.509816 -2.513205 -0.431288
v 0.470552 -2.773338 -0.431288
vt 0.144413 0.230520
vt 0.194976 0.118981
vt 0.257346 0.148260
vt 0.854972 0.828584
vt 0.846816 0.484838
vt 0.875326 0.821906
vt 0.776424 0.586485
vt 0.806860 0.260387
vt 0.798168 0.592899
vt 0.789618 0.590760
vt 0.199866 0.718061
vt 0.402334 0.758139
vt 0.252663 0.829600
vt 0.860561 0.479783
vt 0.891059 0.134241
vt 0.882542 0.477986
vt 0.881587 0.478081
vt 0.204931 0.575091
vt 0.218216 0.536249
vt 0.198478 0.386577
vt 0.328967 0.400160
vt 0.362216 0.173363
vt 0.350545 0.500740
vt 0.346847 0.471333
vt 0.385457 0.616846
vt 0.437451 0.514960
vt 0.212292 0.373491
vt 0.261133 0.118981
vt 0.391623 0.165498
vt 0.318493 0.324637
vt 0.427002 0.440239
vt 0.399092 0.452304
vt 0.196899 0.118981
vt 0.298785 0.154520
vt 0.314151 0.533198
vt 0.163099 0.222860
vt 0.209024 0.279922
vt 0.195635 0.446358
vt 0.373506 0.193423
vt 0.306953 0.630778
vt 0.449313 0.250484
vt 0.266810 0.118981
vt 0.209927 0.514080
vt 0.300051 0.804656
vt 0.233107 0.576396
vt 0.266809 0.829600
vt 0.394431 0.484642
vt 0.291644 0.775218
vt 0.280587 0.639571
vt 0.300831 0.539390
vt 0.309382 0.538875
vt 0.308776 0.525773
vt 0.307832 0.504746
vt 0.307790 0.503792
vt 0.287436 0.504065
vt 0.273934 0.504324
vt 0.273873 0.519542
vt 0.274022 0.541131
vt 0.287638 0.540209
vt 0.843178 0.262264
vt 0.812994 0.582081
vt 0.821588 0.260387
vt 0.847458 0.480848
vt 0.839666 0.148336
vt 0.896081 0.484838
vt 0.888828 0.817482
vt 0.858395 0.263532
vt 0.866115 0.596176
vt 0.762809 0.582080
vt 0.755467 0.260387
vt 0.842470 0.389192
vt 0.891735 0.387862
vt 0.893862 0.439255
vt 0.842470 0.442313
vn -0.540910 -0.546040 -0.639732
vn -0.102637 -0.989145 -0.105159
vn -0.225551 -0.973788 0.029374
vn 0.999477 0.024256 -0.021391
vn 0.999355 0.023787 -0.026898
vn 0.999395 0.023929 -0.025239
vn -0.998019 0.025146 0.057670
vn -0.997920 0.025296 0.059300
vn -0.998237 0.024801 0.053929
vn -0.998237 0.024801 0.053929
vn 0.074031 -0.030339 -0.996794
vn 0.136494 -0.070430 -0.988134
vn 0.063449 -0.386974 -0.919905
vn 0.047887 0.024944 0.998541
vn 0.048161 0.024968 0.998528
vn 0.046825 0.024852 0.998594
vn 0.046825 0.024852 0.998594
vn -0.932615 0.094787 -0.348202
vn -0.991889 0.067362 -0.107787
vn -0.963283 0.112112 -0.243959
vn -0.102637 -0.989145 -0.105159
vn 0.384673 -0.881398 -0.274161
vn 0.603265 -0.770848 0.204610
vn -0.977496 0.003747 0.210923
vn -0.977869 0.107066 -0.179747
vn -0.991889 0.067362 -0.107787
vn 0.074031 -0.030339 -0.996794
vn -0.043202 0.119628 -0.991878
vn 0.136494 -0.070430 -0.988134
vn -0.039102 -0.939719 0.339706
vn 0.603265 -0.770848 0.204610
vn 0.126835 -0.786044 0.605019
vn -0.140950 0.176186 -0.974213
vn -0.043202 0.119628 -0.991878
vn 0.074031 -0.030339 -0.996794
vn -0.963283 0.112112 -0.243959
vn -0.991889 0.067362 -0.107787
vn -0.977869 0.107066 -0.179747
vn 0.603265 -0.770848 0.204610
vn 0.967646 -0.127311 -0.217836
vn 0.968581 0.063949 -0.240338
vn 0.126835 -0.786044 0.605019
vn 0.603265 -0.770848 0.204610
vn 0.545896 -0.453970 0.704209
vn 0.968581 0.063949 -0.240338
vn 0.967646 -0.127311 -0.217836
vn 0.743760 0.126801 -0.656310
vn -0.427742 0.105027 0.897778
vn -0.347193 0.123545 0.929620
vn -0.148325 0.154298 0.976828
vn 0.545896 -0.453970 0.704209
vn 0.603265 -0.770848 0.204610
vn 0.965872 -0.079605 0.246484
vn 0.965872 -0.079605 0.246484
vn 0.603265 -0.770848 0.204610
vn 0.968581 0.063949 -0.240338
vn -0.427742 0.105027 0.897778
vn -0.148325 0.154298 0.976828
vn -0.213958 0.078080 0.973717
vn -0.347193 0.123545 0.929620
vn 0.220417 0.135555 0.965941
vn -0.148325 0.154298 0.976828
vn -0.961511 0.223479 -0.159857
vn -0.914849 0.313777 0.254156
vn -0.416648 0.294895 -0.859908
vn -0.148325 0.154298 0.976828
vn 0.220417 0.135555 0.965941
vn 0.405409 0.156269 0.900679
vn -0.416648 0.294895 -0.859908
vn 0.461796 0.783708 -0.415387
vn 0.713527 0.335038 -0.615328
vn 0.948814 0.223244 0.223415
vn 0.965872 -0.079605 0.246484
vn 0.968581 0.063949 -0.240338
vn 0.461796 0.783708 -0.415387
vn 0.908164 0.336717 -0.248715
vn 0.713527 0.335038 -0.615328
vn -0.213958 0.078080 0.973717
vn -0.148325 0.154298 0.976828
vn -0.420897 0.395026 0.816579
vn -0.416648 0.294895 -0.859908
vn -0.914849 0.313777 0.254156
vn 0.461796 0.783708 -0.415387
vn 0.405409 0.156269 0.900679
vn 0.183522 0.046800 0.981901
vn -0.148325 0.154298 0.976828
vn 0.461796 0.783708 -0.415387
vn 0.921964 0.365681 0.127513
vn 0.908164 0.336717 -0.248715
vn -0.914849 0.313777 0.254156
vn 0.122810 0.397690 0.909264
vn 0.461796 0.783708 -0.415387
vn 0.122810 0.397690 0.909264
vn 0.921964 0.365681 0.127513
vn 0.461796 0.783708 -0.415387
vn -0.039102 -0.939719 0.339706
vn -0.225551 -0.973788 0.029374
vn -0.071885 -0.960259 0.269693
vn -0.067222 -0.966931 0.246022
vn -0.067222 -0.966931 0.246022
vn -0.068051 -0.965793 0.250227
vn 0.603265 -0.770848 0.204610
vn -0.102637 -0.989145 -0.105159
vn 0.603265 -0.770848 0.204610
vn -0.068051 -0.965793 0.250227
vn -0.080132 -0.946792 0.311711
vn -0.080132 -0.946792 0.311711
vn -0.080132 -0.946792 0.311711
vn -0.080132 -0.946792 0.311711
vn -0.080132 -0.946792 0.311711
vn -0.080132 -0.946792 0.311711
vn -0.071885 -0.960259 0.269693
vn -0.225551 -0.973788 0.029374
vn 0.003307 0.022172 -0.999749
vn 0.005693 0.021946 -0.999743
vn -0.004900 0.022946 -0.999725
vn 0.048185 0.024970 0.998526
vn 0.048185 0.024970 0.998526
vn 0.048161 0.024968 0.998528
vn 0.047887 0.024944 0.998541
vn 0.999395 0.023929 -0.025239
vn 0.999355 0.023787 -0.026898
vn 0.999353 0.023781 -0.026973
vn 0.999353 0.023781 -0.026973
vn 0.005820 0.021934 -0.999743
vn 0.005820 0.021934 -0.999743
vn 0.005693 0.021946 -0.999743
vn 0.003307 0.022172 -0.999749
vn -0.997914 0.025304 0.059385
vn -0.997914 0.025304 0.059385
vn -0.997920 0.025296 0.059300
vn -0.998019 0.025146 0.057670
vn -0.260283 -0.965467 0.011246
vn -0.264217 -0.964437 0.007131
vn -0.259925 -0.965559 0.011621
vn -0.256437 -0.966440 0.015260
vn -0.260283 -0.965467 0.011246
vn -0.259925 -0.965559 0.011621
s off
g pCube3
usemtl initialShadingGroup
f 1/1/1 2/2/2 3/3/3
f 4/4/4 5/5/5 6/6/6
f 7/7/7 8/8/8 9/9/9 10/10/10
f 1/11/11 11/12/12 2/13/13
f 12/14/14 5/15/15 4/16/16 13/17/17
f 1/1/18 3/3/19 14/18/20
f 2/19/21 11/20/22 15/21/23
f 16/22/24 17/23/25 3/3/26
f 1/11/27 18/24/28 11/12/29
f 16/25/30 15/21/31 19/26/32
f 14/27/33 18/24/34 1/11/35
f 14/18/36 3/3/37 17/23/38
f 15/28/39 11/29/40 20/30/41
f 19/26/42 15/21/43 21/31/44
f 20/30/45 11/29/46 18/32/47
f 16/33/48 19/34/49 22/35/50
f 21/36/51 15/28/52 23/37/53
f 23/37/54 15/28/55 20/30/56
f 16/33/57 22/35/58 17/38/59
f 19/34/60 21/39/61 22/35/62
f 17/23/63 24/40/64 14/18/65
f 22/35/66 21/39/67 23/41/68
f 14/27/69 25/42/70 18/24/71
f 26/43/72 23/37/73 20/30/74
f 25/44/75 20/30/76 18/32/77
f 17/38/78 22/35/79 24/45/80
f 14/18/81 24/40/82 25/46/83
f 23/41/84 26/47/85 22/35/86
f 25/44/87 26/43/88 20/30/89
f 24/45/90 22/35/91 25/48/92
f 22/35/93 26/47/94 25/48/95
f 16/25/96 3/49/97 10/50/98 9/51/99 12/52/100 13/53/101 15/21/102
f 2/19/103 15/21/104 13/53/105 4/54/106 6/55/107 27/56/108 28/57/109 29/58/110 7/59/111 10/50/112 3/49/113
f 28/60/114 30/61/115 29/62/116
f 9/63/117 8/64/118 5/15/119 12/14/120
f 6/6/121 5/5/122 31/65/123 27/66/124
f 27/67/125 31/68/126 30/61/127 28/60/128
f 29/69/129 30/70/130 8/8/131 7/7/132
f 31/71/133 5/72/134 8/73/135
f 30/74/136 31/71/137 8/73/138
