# This file uses centimeters as units for non-parametric coordinates.

mtllib Rock4.mtl
g default
v 0.094446 -0.463324 0.617557
v -0.333259 -0.411805 -0.545583
v -0.261378 0.378111 0.207554
v 0.259460 0.213746 -0.460877
v 0.238285 0.384346 -0.454108
v -0.257247 0.054321 -0.546394
v -0.267577 -0.440121 0.294650
v -0.248490 0.376703 -0.432512
v 0.290079 0.393604 0.315657
v 0.112827 -0.433019 -0.704225
v 0.246265 -0.435516 -0.546595
v 0.316210 -0.449912 0.274843
v -0.338855 0.421584 -0.026577
v 0.299037 0.356712 -0.127948
v 0.298072 0.021937 -0.574657
vt 0.580305 0.042010
vt 0.354204 0.707036
vt 0.029648 0.242513
vt 0.392180 0.293242
vt 0.338396 0.394928
vt 0.624291 0.624395
vt 0.612681 0.473923
vt 0.054644 0.169378
vt 0.261992 0.037270
vt 0.416656 0.489288
vt 0.028735 0.050659
vt 0.971068 0.248047
vt 0.544861 0.548871
vt 0.970246 0.022990
vt 0.980328 0.186320
vt 0.533824 0.712865
vt 0.627146 0.715210
vt 0.809726 0.058170
vt 0.165967 0.239014
vt 0.655467 0.374146
vt 0.977917 0.129964
vt 0.825091 0.248372
vt 0.674977 0.181140
vt 0.357318 0.593454
vn -0.188992 0.364401 0.911863
vn -0.188992 0.364401 0.911863
vn -0.188992 0.364401 0.911863
vn -0.015811 0.999872 -0.002518
vn -0.015811 0.999872 -0.002518
vn -0.015811 0.999872 -0.002518
vn 0.603395 0.620445 -0.500961
vn 0.603395 0.620445 -0.500961
vn 0.603395 0.620445 -0.500961
vn -0.332389 0.052566 -0.941677
vn -0.332389 0.052566 -0.941677
vn -0.332389 0.052566 -0.941677
vn 0.979307 -0.073339 -0.188623
vn 0.979307 -0.073339 -0.188623
vn 0.979307 -0.073339 -0.188623
vn 0.991993 0.121805 0.033357
vn 0.991993 0.121805 0.033357
vn 0.991993 0.121805 0.033357
vn 0.985075 0.158539 0.067026
vn 0.985075 0.158539 0.067026
vn 0.985075 0.158539 0.067026
vn 0.999391 0.030105 0.017677
vn 0.999390 0.030105 0.017677
vn 0.999390 0.030105 0.017677
vn -0.999943 0.006688 -0.008351
vn -0.999943 0.006688 -0.008351
vn -0.999943 0.006688 -0.008351
vn -0.860132 -0.470371 0.197293
vn -0.860132 -0.470371 0.197293
vn -0.860132 -0.470371 0.197293
vn -0.967983 0.106575 -0.227266
vn -0.967984 0.106575 -0.227266
vn -0.967984 0.106575 -0.227266
vn -0.660242 0.084442 0.746291
vn -0.660242 0.084442 0.746291
vn -0.660242 0.084442 0.746291
vn -0.011703 0.996472 -0.083106
vn -0.011703 0.996472 -0.083106
vn -0.011703 0.996472 -0.083106
vn 0.079539 0.994411 0.069435
vn 0.079539 0.994411 0.069435
vn 0.079539 0.994411 0.069435
vn 0.471850 0.881646 0.007561
vn 0.471850 0.881646 0.007561
vn 0.471850 0.881647 0.007561
vn -0.044830 0.034050 -0.998414
vn -0.044830 0.034050 -0.998414
vn -0.044830 0.034050 -0.998414
vn -0.014208 0.508018 -0.861229
vn -0.014208 0.508018 -0.861229
vn -0.014208 0.508018 -0.861229
vn 0.053683 0.331302 -0.941996
vn 0.053683 0.331302 -0.941996
vn 0.053683 0.331302 -0.941996
vn -0.053955 -0.055052 -0.997025
vn -0.053955 -0.055052 -0.997025
vn -0.053955 -0.055052 -0.997025
vn 0.989335 -0.117337 -0.086299
vn 0.989335 -0.117337 -0.086299
vn 0.989335 -0.117337 -0.086299
vn 0.839566 -0.000277 0.543258
vn 0.839566 -0.000277 0.543258
vn 0.839566 -0.000277 0.543258
vn -0.983592 0.160541 0.082298
vn -0.983592 0.160541 0.082298
vn -0.983592 0.160541 0.082298
s off
g pCube26
usemtl initialShadingGroup
f 3/4/1 1/1/2 9/23/3
f 5/7/4 8/10/5 3/4/6
f 11/17/7 10/16/8 6/24/9
f 2/2/10 6/24/11 10/16/12
f 12/18/13 5/12/14 14/22/15
f 5/12/16 12/18/17 4/15/18
f 15/21/19 4/15/20 12/18/21
f 14/22/22 9/23/23 12/18/24
f 3/4/25 6/8/26 7/9/27
f 13/19/28 6/8/29 3/4/30
f 6/8/31 13/19/32 8/3/33
f 1/1/34 3/4/35 7/9/36
f 14/20/37 3/4/38 9/23/39
f 3/4/40 14/20/41 5/7/42
f 13/5/43 3/4/44 8/10/45
f 5/7/46 4/13/47 8/10/48
f 6/24/49 4/13/50 15/6/51
f 4/13/52 6/24/53 8/10/54
f 11/17/55 6/24/56 15/6/57
f 12/18/58 11/14/59 15/21/60
f 9/23/61 1/1/62 12/18/63
f 2/11/64 7/9/65 6/8/66
