# This file uses centimeters as units for non-parametric coordinates.

mtllib Rock3.mtl
g default
v -0.346016 0.028054 -0.401087
v -0.100949 -0.133196 -0.337125
v -0.324162 0.165369 -0.233276
v -0.364211 -0.152277 0.455487
v -0.361039 -0.069181 -0.427874
v 0.297804 0.116777 0.196194
v 0.341830 -0.022070 -0.391941
v 0.349903 -0.158922 0.523068
v 0.295604 0.093549 -0.332962
v -0.317708 0.135130 0.037925
v 0.053866 -0.243597 0.460595
v 0.300945 0.143392 0.019793
v -0.288257 0.176622 0.200797
v -0.245020 0.130911 -0.286953
v 0.389538 -0.225562 -0.142443
v 0.379507 -0.149799 -0.380229
v -0.400397 -0.229027 0.135692
v -0.381097 -0.151505 -0.202760
vt 0.000000 0.250000
vt 0.444553 0.730761
vt 0.341502 0.454590
vt 0.376834 0.092971
vt 0.010044 0.065796
vt 0.911140 0.198146
vt 0.085844 0.202240
vt 0.332116 0.557007
vt 0.996274 0.141113
vt 0.044654 0.153117
vt 0.483239 0.003845
vt 0.638648 0.386841
vt 0.467439 0.234330
vt 0.459656 0.494448
vt 0.846379 0.010844
vt 0.970588 0.042816
vt 0.206572 0.005290
vt 0.070039 0.015951
vt 0.826804 0.238312
vt 0.177506 0.210496
vt 0.656217 0.088491
vt 0.625366 0.213379
vt 0.634579 0.457957
vt 0.344160 0.378052
vt 0.629290 0.603760
vt 0.627419 0.715178
vt 0.362966 0.719874
vn 0.056354 0.988473 -0.140519
vn 0.056354 0.988473 -0.140519
vn 0.056354 0.988473 -0.140519
vn 0.993464 0.109978 -0.030581
vn 0.993463 0.109978 -0.030581
vn 0.993463 0.109978 -0.030581
vn 0.967351 0.247498 0.054566
vn 0.967351 0.247498 0.054566
vn 0.967351 0.247498 0.054566
vn -0.982507 0.185339 0.018150
vn -0.982507 0.185339 0.018150
vn -0.982507 0.185339 0.018150
vn -0.950710 0.294562 0.096868
vn -0.950710 0.294562 0.096868
vn -0.950710 0.294562 0.096868
vn -0.992857 0.113653 0.036302
vn -0.992857 0.113653 0.036302
vn -0.992857 0.113653 0.036302
vn -0.333185 0.693890 0.638360
vn -0.333185 0.693890 0.638360
vn -0.333185 0.693890 0.638360
vn 0.107684 0.539696 0.834945
vn 0.107684 0.539696 0.834945
vn 0.107684 0.539696 0.834945
vn 0.067630 0.601050 0.796345
vn 0.067630 0.601050 0.796345
vn 0.067630 0.601050 0.796345
vn 0.101600 0.983424 0.150183
vn 0.101600 0.983424 0.150183
vn 0.101600 0.983424 0.150183
vn 0.028253 0.995469 -0.090788
vn 0.028253 0.995470 -0.090788
vn 0.028253 0.995469 -0.090788
vn -0.508959 0.851676 -0.124934
vn -0.508959 0.851676 -0.124934
vn -0.508959 0.851676 -0.124934
vn 0.447509 0.889882 0.088571
vn 0.447509 0.889882 0.088571
vn 0.447509 0.889882 0.088571
vn -0.045996 0.439271 -0.897176
vn -0.045996 0.439271 -0.897176
vn -0.045996 0.439271 -0.897176
vn 0.003336 0.574513 -0.818489
vn 0.003336 0.574513 -0.818489
vn 0.003336 0.574513 -0.818489
vn -0.092777 -0.118022 -0.988667
vn -0.092777 -0.118023 -0.988667
vn -0.092777 -0.118023 -0.988667
vn 0.082950 -0.686733 -0.722161
vn 0.082950 -0.686733 -0.722161
vn 0.082950 -0.686733 -0.722161
vn 0.707454 0.084026 -0.701746
vn 0.707454 0.084026 -0.701746
vn 0.707454 0.084026 -0.701746
vn 0.947216 0.314862 0.060361
vn 0.947216 0.314862 0.060361
vn 0.947216 0.314862 0.060361
vn 0.954453 0.297128 0.027090
vn 0.954453 0.297128 0.027090
vn 0.954453 0.297128 0.027090
vn 0.941954 0.292894 0.164118
vn 0.941954 0.292894 0.164118
vn 0.941954 0.292894 0.164118
vn -0.957512 0.285634 0.039795
vn -0.957512 0.285634 0.039795
vn -0.957512 0.285634 0.039795
vn -0.984527 0.174484 -0.016175
vn -0.984527 0.174484 -0.016175
vn -0.984527 0.174484 -0.016175
vn -0.085325 0.776518 -0.624291
vn -0.085325 0.776518 -0.624291
vn -0.085325 0.776518 -0.624291
vn -0.986607 0.160479 -0.029223
vn -0.986607 0.160479 -0.029223
vn -0.986607 0.160479 -0.029223
s off
g pCube17
usemtl initialShadingGroup
f 12/12/1 9/23/2 14/14/3
f 9/6/4 12/19/5 8/21/6
f 12/19/7 6/22/8 8/21/9
f 4/4/10 10/20/11 1/10/12
f 4/4/13 13/13/14 10/20/15
f 3/7/16 1/10/17 10/20/18
f 6/22/19 11/11/20 8/21/21
f 4/4/22 11/11/23 6/22/24
f 4/4/25 6/22/26 13/13/27
f 12/12/28 13/13/29 6/22/30
f 13/13/31 12/12/32 14/14/33
f 14/14/34 10/24/35 13/13/36
f 3/3/37 10/24/38 14/14/39
f 14/14/40 9/23/41 7/25/42
f 5/27/43 14/14/44 7/25/45
f 7/25/46 16/26/47 2/2/48
f 5/27/49 7/25/50 2/2/51
f 5/27/52 1/8/53 14/14/54
f 16/16/55 9/6/56 15/15/57
f 8/21/58 15/15/59 9/6/60
f 7/9/61 9/6/62 16/16/63
f 17/17/64 4/4/65 1/10/66
f 1/10/67 18/18/68 17/17/69
f 14/1/70 1/10/71 3/7/72
f 1/10/73 5/5/74 18/18/75
