# This file uses centimeters as units for non-parametric coordinates.

mtllib Rock2.mtl
g default
v -0.296542 -0.615433 0.241498
v -0.270275 0.524815 -0.045787
v 0.360065 -0.686319 0.228867
v -0.251749 -0.162119 -0.252720
v -0.245323 0.464647 -0.216164
v 0.247951 0.529645 -0.211498
v -0.309347 -0.636123 0.081035
v -0.250433 0.524930 0.173930
v -0.274766 0.550091 0.059091
v 0.159502 -0.548150 0.236607
v 0.254896 0.483036 0.177714
v -0.275972 0.141051 -0.262884
v 0.100064 -0.624493 0.172952
v -0.265654 -0.637012 0.189798
v 0.301727 -0.675364 -0.030424
v 0.250335 -0.108708 -0.206994
v -0.029994 -0.662415 -0.276051
v 0.249935 0.524729 -0.032232
v 0.255975 0.549299 0.011264
v 0.251744 0.074376 -0.276594
v 0.336613 -0.588984 -0.331575
v 0.313336 -0.636304 -0.154993
v 0.255761 0.324173 -0.236306
v -0.317779 -0.650683 -0.303467
vt 0.334041 0.042526
vt 0.336402 0.735596
vt 0.346005 0.672241
vt 0.048627 0.201303
vt 0.130518 0.241781
vt 0.663333 0.414063
vt 0.334774 0.418945
vt 0.633840 0.587275
vt 0.782365 0.032191
vt 0.527842 0.131397
vt 0.607948 0.260732
vt 0.009708 0.152924
vt 0.635745 0.490580
vt 0.233921 0.152412
vt 0.225586 0.247070
vt 0.377587 0.324804
vt 0.650638 0.545492
vt 0.210278 0.005819
vt 0.934889 0.155813
vt 0.972712 0.236735
vt 0.605087 0.673761
vt 0.942135 0.005208
vt 0.992767 0.206543
vt 0.067837 0.007039
vt 0.406335 0.707194
vt 0.858462 0.225708
vt 0.772487 0.243815
vt 0.427209 0.010284
vt 0.642066 0.346436
vt 0.416467 0.480275
vt 0.663333 0.671875
vt 0.379934 0.592239
vt 0.873750 0.000000
vt 0.935457 0.087702
vt 0.973109 0.014089
vt 0.288750 0.000000
vt 0.036805 0.074615
vn -0.002728 0.057270 0.998355
vn -0.002728 0.057270 0.998355
vn -0.002728 0.057270 0.998355
vn -0.144213 -0.027940 -0.989152
vn -0.144213 -0.027940 -0.989152
vn -0.144213 -0.027940 -0.989152
vn 0.991350 0.065649 -0.113648
vn 0.991350 0.065649 -0.113648
vn 0.991350 0.065649 -0.113648
vn 0.995986 0.089323 -0.005796
vn 0.995986 0.089323 -0.005796
vn 0.995986 0.089323 -0.005796
vn 0.999893 0.009875 -0.010794
vn 0.999893 0.009875 -0.010794
vn 0.999893 0.009875 -0.010794
vn 0.987412 -0.149048 -0.052932
vn 0.987412 -0.149048 -0.052932
vn 0.987412 -0.149048 -0.052932
vn -0.728117 -0.672824 0.130974
vn -0.728117 -0.672824 0.130974
vn -0.728117 -0.672824 0.130974
vn -0.854667 -0.514659 0.068338
vn -0.854667 -0.514659 0.068338
vn -0.854667 -0.514659 0.068338
vn 0.108817 -0.685208 0.720173
vn 0.108817 -0.685208 0.720173
vn 0.108817 -0.685208 0.720173
vn 0.001991 0.059067 0.998252
vn 0.001991 0.059067 0.998252
vn 0.001991 0.059067 0.998252
vn 0.180922 0.944597 -0.273869
vn 0.180922 0.944597 -0.273869
vn 0.180922 0.944597 -0.273869
vn 0.079532 0.977126 0.197231
vn 0.079532 0.977126 0.197231
vn 0.079532 0.977126 0.197231
vn 0.977368 -0.210897 -0.016598
vn 0.977367 -0.210897 -0.016598
vn 0.977368 -0.210897 -0.016598
vn -0.308218 0.884539 0.350133
vn -0.308218 0.884539 0.350133
vn -0.308218 0.884539 0.350133
vn -0.129427 0.988149 -0.082524
vn -0.129427 0.988149 -0.082524
vn -0.129427 0.988149 -0.082524
vn 0.728117 0.672824 -0.130974
vn 0.728117 0.672824 -0.130974
vn 0.728117 0.672824 -0.130974
vn -0.006372 0.119628 -0.992798
vn -0.006372 0.119628 -0.992798
vn -0.006372 0.119628 -0.992798
vn -0.005520 0.159310 -0.987213
vn -0.005520 0.159310 -0.987213
vn -0.005520 0.159310 -0.987213
vn 0.000267 0.142871 -0.989741
vn 0.000267 0.142871 -0.989741
vn 0.000267 0.142871 -0.989741
vn 0.954962 0.098992 0.279730
vn 0.954962 0.098992 0.279730
vn 0.954962 0.098992 0.279730
vn -0.015711 0.080592 -0.996623
vn -0.015711 0.080592 -0.996623
vn -0.015711 0.080592 -0.996623
vn -0.215171 -0.049891 -0.975301
vn -0.215171 -0.049891 -0.975301
vn -0.215171 -0.049891 -0.975301
vn 0.098075 0.089693 -0.991129
vn 0.098075 0.089693 -0.991129
vn 0.098075 0.089693 -0.991129
vn 0.983740 0.179321 -0.010020
vn 0.983740 0.179321 -0.010020
vn 0.983740 0.179321 -0.010020
vn 0.575201 -0.801551 -0.163279
vn 0.575201 -0.801551 -0.163278
vn 0.575201 -0.801551 -0.163278
vn -0.735840 -0.623533 -0.264094
vn -0.735840 -0.623533 -0.264094
vn -0.735840 -0.623533 -0.264094
vn -0.595544 -0.118567 0.794525
vn -0.595544 -0.118567 0.794525
vn -0.595544 -0.118567 0.794525
vn 0.869695 -0.181228 -0.459115
vn 0.869695 -0.181228 -0.459115
vn 0.869695 -0.181228 -0.459115
vn 0.072981 0.050136 0.996072
vn 0.072981 0.050136 0.996072
vn 0.072981 0.050136 0.996072
vn -0.387511 -0.909869 0.148239
vn -0.387511 -0.909869 0.148239
vn -0.387511 -0.909868 0.148239
vn -0.997717 0.036994 -0.056495
vn -0.997717 0.036994 -0.056495
vn -0.997717 0.036994 -0.056495
vn -0.985331 0.160519 0.057929
vn -0.985331 0.160519 0.057929
vn -0.985331 0.160519 0.057929
vn -0.991081 0.132207 0.016727
vn -0.991081 0.132207 0.016727
vn -0.991081 0.132207 0.016727
vn -0.989489 -0.074914 0.123689
vn -0.989489 -0.074914 0.123689
vn -0.989489 -0.074914 0.123689
vn -0.994757 0.098295 -0.028221
vn -0.994757 0.098295 -0.028221
vn -0.994757 0.098295 -0.028221
s off
g pCube5
usemtl initialShadingGroup
f 11/11/1 8/14/2 10/10/3
f 12/32/4 21/21/5 17/25/6
f 18/26/7 3/9/8 20/19/9
f 18/26/10 11/11/11 3/9/12
f 6/20/13 18/26/14 20/19/15
f 19/27/16 11/11/17 18/26/18
f 9/15/19 2/5/20 5/4/21
f 5/4/22 8/14/23 9/15/24
f 13/28/25 10/10/26 1/1/27
f 10/10/28 8/14/29 1/1/30
f 9/16/31 11/11/32 5/30/33
f 9/16/34 8/14/35 11/11/36
f 18/6/37 6/13/38 19/29/39
f 11/11/40 19/29/41 5/30/42
f 5/30/43 19/29/44 6/13/45
f 5/30/46 2/7/47 9/16/48
f 23/17/49 5/30/50 6/13/51
f 20/8/52 12/32/53 23/17/54
f 5/30/55 23/17/56 12/32/57
f 20/8/58 16/31/59 21/21/60
f 20/8/61 21/21/62 12/32/63
f 17/25/64 4/3/65 12/32/66
f 4/3/67 17/25/68 24/2/69
f 16/34/70 3/9/71 21/35/72
f 3/9/73 15/33/74 21/35/75
f 15/33/76 22/22/77 21/35/78
f 23/23/79 6/20/80 20/19/81
f 3/9/82 16/34/83 20/19/84
f 11/11/85 10/10/86 3/9/87
f 1/1/88 7/18/89 14/36/90
f 8/14/91 4/37/92 1/1/93
f 1/1/94 4/37/95 7/18/96
f 7/18/97 4/37/98 24/24/99
f 4/37/100 8/14/101 12/12/102
f 5/4/103 12/12/104 8/14/105
