# This file uses centimeters as units for non-parametric coordinates.

mtllib twig_v2.mtl
g default
v -6.994747 27.022275 3.116792
v 0.000000 0.000000 0.000000
v -2.052387 17.273342 1.467908
v -6.994747 27.022275 2.442577
v 1.207099 41.027044 -0.331811
v -2.233316 17.750487 0.973495
vt 0.375000 0.000000
vt 0.617517 0.636289
vt 0.375000 0.250000
vt 0.375000 0.500000
vt 0.375000 0.750000
vt 0.375000 1.000000
vt 0.125000 0.000000
vt 0.500000 0.375000
vt 0.125000 0.250000
vn 0.898919 -0.029983 -0.437087
vn -0.687734 0.061085 -0.723388
vn 0.994090 -0.012672 -0.107813
vn 0.211533 -0.057779 0.975662
vn 0.211533 -0.057779 0.975662
vn 0.211533 -0.057779 0.975662
vn 0.232251 0.041757 0.971759
vn -0.406091 -0.022540 -0.913555
vn -0.964202 -0.239249 -0.114340
vn -0.258098 0.020500 -0.965901
vn -0.968093 -0.250592 0.000000
vn 0.889558 0.456823 0.000000
vn 0.890183 0.455552 0.006888
vn 0.894212 0.439143 0.086823
vn 0.894287 0.437337 0.094800
s 1
g pCube1
usemtl initialShadingGroup
f 2/2/1 6/4/2 5/8/3
s off
f 1/1/4 2/2/5 3/3/6
s 1
f 3/3/7 2/2/1 5/8/3
f 5/8/3 6/4/2 3/3/7
s 2
f 2/2/8 4/5/9 6/4/10
f 1/6/11 4/5/9 2/2/8
s 3
f 4/7/12 1/1/13 6/9/14
f 6/9/14 1/1/13 3/3/15
